<?xml version="1.0" encoding="UTF-8"?>
<svg width="55px" height="48px" viewBox="0 0 55 48" version="1.1" xmlns="http://www.w3.org/2000/svg" xmlns:xlink="http://www.w3.org/1999/xlink">
    <!-- Generator: Sketch 50.2 (55047) - http://www.bohemiancoding.com/sketch -->
    <title>查找添加设备</title>
    <desc>Created with Sketch.</desc>
    <defs></defs>
    <g id="商米服务平台" stroke="none" stroke-width="1" fill="none" fill-rule="evenodd" opacity="0.501785714">
        <g id="新建任务-录入设备默认" transform="translate(-609.000000, -439.000000)" fill="#BFBFBF" fill-rule="nonzero">
            <g id="Group" transform="translate(609.000000, 439.000000)">
                <path d="M52,22.4978548 C54.479936,25.4937492 55.5198806,29.6050848 54.4365043,33.6483001 C53.6566207,36.5588656 52.5467715,38.5393027 50.2671322,40.1567143 L52.9033799,45.5872802 C53.2229455,46.1453613 53.0319535,46.8581528 52.4792874,47.1825201 C52.1986837,47.341884 51.8848734,47.3750745 51.5941295,47.2971699 C51.3033856,47.2192653 51.0450869,47.0327787 50.8848852,46.7553013 L47.1955054,41.9250627 C44.6549663,43.0905825 42.1254536,43.216388 39.2148881,42.4365043 C38.3774693,42.2121186 37.5830623,41.9073898 36.8377384,41.5328336 C36.2343006,44.5174113 33.9937756,47.0274812 30.8914139,47.7798598 C30.2883337,47.9261177 29.6705239,48 29.0505852,48 L22.9476059,48 C18.5582644,48 15,44.3756385 15,39.9047619 C15,39.2733074 15.072535,38.6440214 15.2161255,38.0297386 L16.1580894,34 L7.87878788,34 C3.52745349,34 5.32884774e-16,30.4599259 0,26.0930233 L0,7.90697674 C-5.32884774e-16,3.54007407 3.52745349,8.02187007e-16 7.87878788,1.40456122e-15 L44.1212121,1.40456122e-15 C48.4725465,6.02374215e-16 52,3.54007407 52,7.90697674 L52,22.4978548 Z M30.0063947,30.8372093 C29.9679823,29.6448988 30.1019442,28.4268332 30.4266839,27.2148881 C32.2034114,20.584051 39.017463,16.6499565 45.6483001,18.4266839 C46.8019497,18.7358034 47.873969,19.1974022 48.8484848,19.7839867 L48.8484848,7.90697674 C48.8484848,5.28683514 46.7320128,3.1627907 44.1212121,3.1627907 L7.87878788,3.1627907 C5.26798724,3.1627907 3.15151515,5.28683514 3.15151515,7.90697674 L3.15151515,26.0930233 C3.15151515,28.7131649 5.26798724,30.8372093 7.87878788,30.8372093 L30.0063947,30.8372093 Z M30.5985543,34.2380952 L19.3703431,34.2380952 L18.3087176,38.7797479 C18.2225633,39.1483176 18.1790424,39.5258892 18.1790424,39.9047619 C18.1790424,42.5872878 20.314001,44.7619048 22.9476059,44.7619048 L29.0505852,44.7619048 C29.4225484,44.7619048 29.7932343,44.7175754 30.1550824,44.6298207 C32.5243441,44.055232 34.0558548,41.7720742 33.7904318,39.3679729 C32.3212419,37.9448825 31.2246274,36.1783627 30.5985543,34.2380952 Z M46.1964744,39.2540064 C47.3291667,38.7759615 48.343109,38.0908654 49.2169872,37.2169872 C50.0908654,36.343109 50.7759615,35.3261218 51.2540064,34.1964744 C51.7503205,33.0272436 52,31.7849359 52,30.5 C52,29.2150641 51.7503205,27.9727564 51.2540064,26.8035256 C50.7759615,25.6738782 50.0908654,24.656891 49.2169872,23.7830128 C48.343109,22.9091346 47.3261218,22.2240385 46.1964744,21.7459936 C45.0272436,21.2496795 43.7849359,21 42.5,21 C41.2150641,21 39.9727564,21.2496795 38.8035256,21.7459936 C37.6738782,22.2240385 36.656891,22.9091346 35.7830128,23.7830128 C34.9091346,24.656891 34.2240385,25.6738782 33.7459936,26.8035256 C33.2496795,27.9727564 33,29.2150641 33,30.5 C33,31.7849359 33.2496795,33.0272436 33.7459936,34.1964744 C34.2240385,35.3261218 34.9091346,36.343109 35.7830128,37.2169872 C36.656891,38.0908654 37.6738782,38.7759615 38.8035256,39.2540064 C39.9727564,39.7503205 41.2150641,40 42.5,40 C43.7849359,40 45.0272436,39.7503205 46.1964744,39.2540064 Z" id="查找添加设备"></path>
            </g>
        </g>
    </g>
</svg>