<?xml version="1.0" encoding="UTF-8"?>
<svg width="96px" height="96px" viewBox="0 0 96 96" version="1.1" xmlns="http://www.w3.org/2000/svg" xmlns:xlink="http://www.w3.org/1999/xlink">
    <!-- Generator: Sketch 50.2 (55047) - http://www.bohemiancoding.com/sketch -->
    <title>Shape</title>
    <desc>Created with Sketch.</desc>
    <defs></defs>
    <g id="商米服务平台" stroke="none" stroke-width="1" fill="none" fill-rule="evenodd">
        <g id="新建任务-新建成功" transform="translate(-592.000000, -144.000000)" fill="#FF6900" fill-rule="nonzero">
            <path d="M640,144 C613.4875,144 592,165.4875 592,192 C592,218.5125 613.4875,240 640,240 C666.5125,240 688,218.5125 688,192 C688,165.4875 666.5125,144 640,144 Z M664.259839,177.452325 L630.760056,211.18512 C630.750738,211.194472 630.732101,211.213176 630.722783,211.222528 C630.49914,211.465681 630.228905,211.680777 629.930715,211.849114 C629.408883,212.148379 628.83114,212.28866 628.272033,212.28866 C627.107229,212.28866 625.970379,211.680777 625.355362,210.586589 L615.207584,192.780312 C614.285059,191.16241 614.844165,189.104962 616.456255,188.188462 C618.068344,187.262611 620.118401,187.823733 621.031607,189.441635 L628.989553,203.422929 L659.507436,172.70149 C660.812017,171.382853 662.936621,171.382853 664.250521,172.692138 C665.56442,174.010775 665.56442,176.14304 664.259839,177.452325 Z" id="Shape"></path>
        </g>
    </g>
</svg>