<?xml version="1.0" encoding="UTF-8"?>
<svg width="14px" height="18px" viewBox="0 0 14 18" version="1.1" xmlns="http://www.w3.org/2000/svg" xmlns:xlink="http://www.w3.org/1999/xlink">
    <!-- Generator: Sketch 50.2 (55047) - http://www.bohemiancoding.com/sketch -->
    <title>Shape</title>
    <desc>Created with Sketch.</desc>
    <defs></defs>
    <g id="商米服务平台" stroke="none" stroke-width="1" fill="none" fill-rule="evenodd" fill-opacity="0.45" opacity="0.65">
        <g id="登录" transform="translate(-773.000000, -412.000000)" fill="#000000" fill-rule="nonzero">
            <g id="Input/Medium/Placeholder--Copy" transform="translate(760.000000, 394.000000)">
                <g id="Group-125" transform="translate(0.000000, 17.000000)">
                    <g id="Group" transform="translate(0.000000, 1.000000)">
                        <g id="Group-3">
                            <path d="M25.8686549,14.6238366 C25.5312745,13.8265745 25.0472942,13.109641 24.4327797,12.4951266 C23.8182653,11.8806121 23.1013318,11.3966318 22.3040696,11.0592514 C22.0329603,10.944783 21.7538182,10.8483886 21.4726678,10.7700681 C22.2679217,10.500967 22.9969045,10.0511264 23.6074025,9.44062841 C24.6516754,8.39635554 25.2280337,7.00666933 25.2280337,5.53062979 C25.2280337,4.05459025 24.6536836,2.66490404 23.6074025,1.62063117 C22.5631296,0.576358297 21.1734434,0 19.6974039,0 C18.2213644,0 16.8316782,0.57435008 15.7874053,1.62063117 C14.7431324,2.66490404 14.1667741,4.05459025 14.1667741,5.53062979 C14.1667741,7.00666933 14.7411242,8.39635554 15.7874053,9.44062841 C16.3979033,10.0511264 17.1268861,10.500967 17.92214,10.7700681 C17.6409896,10.8483886 17.3618475,10.9427748 17.0907382,11.0592514 C16.293476,11.3966318 15.5765425,11.8806121 14.9620281,12.4951266 C14.3475136,13.109641 13.8635333,13.8265745 13.5261529,14.6238366 C13.1767231,15.4512221 13,16.3268047 13,17.2325106 C13,17.6321458 13.3233229,17.9554687 13.7229581,17.9554687 C14.1225933,17.9554687 14.4459163,17.6321458 14.4459163,17.2325106 C14.4459163,15.8287669 14.9921513,14.5093683 15.9842106,13.517309 C16.9762698,12.5252498 18.2956684,11.9790148 19.6994121,11.9790148 C21.1031558,11.9790148 22.4225545,12.5252498 23.4146137,13.517309 C24.4066729,14.5093683 24.952908,15.8287669 24.952908,17.2325106 C24.952908,17.6321458 25.2762309,17.9554687 25.6758661,17.9554687 C26.0755013,17.9554687 26.3988242,17.6321458 26.3988242,17.2325106 C26.3948078,16.3268047 26.2180847,15.4512221 25.8686549,14.6238366 Z M15.6106822,5.53062979 C15.6106822,3.27741024 17.4441844,1.44591628 19.6953957,1.44591628 C21.946607,1.44591628 23.7801092,3.27741024 23.7801092,5.53062979 C23.7801092,7.78384933 21.9486152,9.61534329 19.6953957,9.61534329 C17.4421761,9.61534329 15.6106822,7.78184111 15.6106822,5.53062979 Z" id="Shape"></path>
                        </g>
                    </g>
                </g>
            </g>
        </g>
    </g>
</svg>