<?xml version="1.0" encoding="UTF-8"?>
<svg width="21px" height="14px" viewBox="0 0 21 14" version="1.1" xmlns="http://www.w3.org/2000/svg" xmlns:xlink="http://www.w3.org/1999/xlink">
    <!-- Generator: Sketch 50.2 (55047) - http://www.bohemiancoding.com/sketch -->
    <title>Group 4</title>
    <desc>Created with Sketch.</desc>
    <defs></defs>
    <g id="商米服务平台" stroke="none" stroke-width="1" fill="none" fill-rule="evenodd" fill-opacity="0.45" opacity="0.65">
        <g id="登录" transform="translate(-777.000000, -415.000000)" fill="#000000">
            <g id="Input/Medium/Placeholder--Copy" transform="translate(761.000000, 394.000000)">
                <g id="Group-125" transform="translate(15.000000, 17.000000)">
                    <g id="Group" transform="translate(1.000000, 3.000000)">
                        <g id="Group-3">
                            <g id="Group-4" transform="translate(0.000000, 1.000000)">
                                <path d="M21,6.1816 L20.0869565,6.1816 L20.0869565,2.4886 C20.0869565,1.6676 19.4770435,0.9996 18.7274348,0.9996 L2.27256522,0.9996 C1.52295652,0.9996 0.913043478,1.6676 0.913043478,2.4886 L0.913043478,6.1816 L0,6.1816 L0,2.4886 C0,1.1166 1.01986957,-0.0004 2.27256522,-0.0004 L18.7274348,-0.0004 C19.9801304,-0.0004 21,1.1166 21,2.4886 L21,6.1816 Z" id="Fill-1"></path>
                                <path d="M18.7276174,14 L2.27274783,14 C1.01913913,14 0.000182608696,12.883 0.000182608696,11.511 L0.000182608696,7.756 L0.913226087,7.756 L0.913226087,11.511 C0.913226087,12.332 1.52313913,13 2.27274783,13 L18.7276174,13 C19.4772261,13 20.0871391,12.332 20.0871391,11.511 L20.0871391,7.756 L21.0001826,7.756 L21.0001826,11.511 C21.0001826,12.883 19.980313,14 18.7276174,14" id="Fill-4"></path>
                                <path d="M4.331,9.58 L3.736,9.58 L3.736,5.044 L2.903,5.044 L3.267,4.456 L4.331,4.456 L4.331,9.58 Z M9.9613334,9.58 L6.3843334,9.58 L8.3793334,7.424 C8.71533508,7.06933156 8.9533327,6.78933436 9.0933334,6.584 C9.2333341,6.37866564 9.3033334,6.14533464 9.3033334,5.884 C9.3033334,5.62266536 9.20183442,5.39400098 8.9988334,5.198 C8.79583239,5.00199902 8.54383491,4.904 8.2428334,4.904 C7.9418319,4.904 7.69100107,5.01016561 7.4903334,5.2225 C7.28966573,5.4348344 7.17533354,5.73699804 7.1473334,6.129 L6.5663334,6.129 C6.58966685,5.57833058 6.7646651,5.14083496 7.0913334,4.8165 C7.4180017,4.49216505 7.81349775,4.33 8.2778334,4.33 C8.74216906,4.33 9.12716521,4.4804985 9.4328334,4.7815 C9.7385016,5.08250151 9.8913334,5.44999783 9.8913334,5.884 C9.8913334,6.20133492 9.80733424,6.49766529 9.6393334,6.773 C9.47133256,7.04833471 9.21700177,7.36799818 8.8763334,7.732 L7.7003334,8.999 L9.9613334,8.999 L9.9613334,9.58 Z M13.3656668,6.696 C13.6410015,6.83133401 13.8544994,7.01799881 14.0061668,7.256 C14.1578342,7.49400119 14.2336668,7.7529986 14.2336668,8.033 C14.2336668,8.49033562 14.0668351,8.88349836 13.7331668,9.2125 C13.3994985,9.54150165 12.978336,9.706 12.4696668,9.706 C12.0123312,9.706 11.6378349,9.57416799 11.3461668,9.3105 C11.0544987,9.04683202 10.857334,8.65600259 10.7546668,8.138 L11.3496668,8.138 C11.4383339,8.46933499 11.5701659,8.7154992 11.7451668,8.8765 C11.9201677,9.03750081 12.1698318,9.118 12.4941668,9.118 C12.8185018,9.118 13.0903324,9.01650102 13.3096668,8.8135 C13.5290012,8.61049899 13.6386668,8.35500154 13.6386668,8.047 C13.6386668,7.73899846 13.5138347,7.49400091 13.2641668,7.312 C13.0144989,7.12999909 12.6470026,7.03433338 12.1616668,7.025 L12.1616668,6.465 C12.5116686,6.465 12.7939991,6.39033408 13.0086668,6.241 C13.2233345,6.09166592 13.3306668,5.90616778 13.3306668,5.6845 C13.3306668,5.46283223 13.2478343,5.27850074 13.0821668,5.1315 C12.9164993,4.98449927 12.7158346,4.911 12.4801668,4.911 C12.244499,4.911 12.0531675,4.97749934 11.9061668,5.1105 C11.7591661,5.24350067 11.634334,5.44533198 11.5316668,5.716 L10.9226668,5.716 C11.025334,5.26799776 11.2119988,4.92500119 11.4826668,4.687 C11.7533348,4.44899881 12.0869982,4.33 12.4836668,4.33 C12.8803355,4.33 13.2244987,4.46066536 13.5161668,4.722 C13.8078349,4.98333464 13.9536668,5.3006648 13.9536668,5.674 C13.9536668,6.10333548 13.7576688,6.44399874 13.3656668,6.696 Z M18.5970002,8.411 L17.9880002,8.411 L17.9880002,9.58 L17.3930002,9.58 L17.3930002,8.411 L14.9360002,8.411 L17.8130002,4.33 L17.9880002,4.33 L17.9880002,7.83 L18.5970002,7.83 L18.5970002,8.411 Z M17.3930002,7.83 L17.3930002,5.94 L16.0560002,7.83 L17.3930002,7.83 Z" id="1234"></path>
                            </g>
                        </g>
                    </g>
                </g>
            </g>
        </g>
    </g>
</svg>