<?xml version="1.0" encoding="UTF-8"?>
<svg width="13px" height="18px" viewBox="0 0 13 18" version="1.1" xmlns="http://www.w3.org/2000/svg" xmlns:xlink="http://www.w3.org/1999/xlink">
    <!-- Generator: Sketch 50.2 (55047) - http://www.bohemiancoding.com/sketch -->
    <title>Shape</title>
    <desc>Created with Sketch.</desc>
    <defs></defs>
    <g id="商米服务平台" stroke="none" stroke-width="1" fill="none" fill-rule="evenodd" fill-opacity="0.45" opacity="0.65">
        <g id="登录" transform="translate(-760.000000, -413.000000)" fill="#000000" fill-rule="nonzero">
            <g id="Input/Medium/Placeholder--Copy" transform="translate(760.000000, 394.000000)">
                <g id="Group-125" transform="translate(0.000000, 17.000000)">
                    <g id="Group" transform="translate(0.000000, 2.000000)">
                        <g id="Group-3">
                            <path d="M12.3544788,4.14662614 C12.0261647,3.33627861 11.5612112,2.61133069 10.9748004,1.99455564 C10.3883897,1.37208728 9.70139717,0.880565002 8.93280057,0.535170971 C8.13763519,0.180288093 7.29692334,0 6.4315405,0 C5.56615765,0 4.72354804,0.180288093 3.92838266,0.53706874 C3.15978605,0.880565002 2.4746913,1.37208728 1.88638278,1.99455564 C1.29427873,2.61892177 0.829325228,3.34386968 0.50670443,4.14662614 C0.170799246,4.97784914 0,5.86220968 0,6.77693453 L0,15.7002462 C0,16.4289897 0.563637512,17.0210938 1.25822111,17.0210938 L11.5991666,17.0210938 C12.2937502,17.0210938 12.8573877,16.4289897 12.8535921,15.7002462 L12.8535921,7.82450324 L12.8573877,7.46202928 L12.8573877,6.77693453 C12.8611832,5.86600522 12.690384,4.98164468 12.3544788,4.14662614 Z M4.43318932,1.73076569 L4.43698486,1.73076569 L4.46165586,1.72127685 C5.08222645,1.43850921 5.74454797,1.2961765 6.42964273,1.2961765 C7.11094194,1.2961765 7.77516123,1.44040697 8.39952737,1.71748131 C9.0049158,1.9907601 9.55526893,2.38359837 10.031609,2.88271172 C10.5117447,3.38941615 10.8856053,3.97582689 11.1493952,4.62865957 C11.4245718,5.30806101 11.563109,6.02921338 11.563109,6.77693453 L11.563109,7.33867427 L1.2961765,7.33867427 L1.2961765,6.77503676 C1.2961765,6.03490669 1.43471367,5.31375432 1.70989023,4.62865957 C1.97557795,3.97013359 2.35323406,3.38372284 2.82767641,2.88460949 C3.30022099,2.38739391 3.83728973,1.99835118 4.43318932,1.73076569 Z M11.5688023,8.63105523 L11.5688023,15.6983485 C11.5688023,15.7097351 11.5669045,15.7192239 11.5650067,15.7249172 L1.29997204,15.7249172 C1.29807427,15.7192239 1.2961765,15.7097351 1.2961765,15.6983485 L1.2961765,8.63105523 L11.5688023,8.63105523 Z M5.83184537,11.546029 L5.83184537,13.2445326 C5.83184537,13.5766423 6.10132862,13.8461255 6.43343827,13.8461255 C6.76554791,13.8461255 7.03503117,13.5766423 7.03503117,13.2445326 L7.03503117,11.5422335 C7.35385643,11.3372744 7.54553114,10.9918804 7.54553114,10.6085309 C7.54553114,9.99365366 7.04641778,9.49454031 6.4315405,9.49454031 C5.81666321,9.49454031 5.31754986,9.99365366 5.31754986,10.6085309 C5.31944763,10.9861871 5.51491788,11.3429677 5.83184537,11.546029 Z" id="Shape"></path>
                        </g>
                    </g>
                </g>
            </g>
        </g>
    </g>
</svg>